<svg width="45" height="45" viewBox="0 0 45 45" fill="none" xmlns="http://www.w3.org/2000/svg">
<path d="M22.5 0.15625C10.1602 0.15625 0.15625 10.1602 0.15625 22.5C0.15625 33.0505 7.47125 41.8875 17.3051 44.2302C16.7963 44.109 16.2919 43.9732 15.7969 43.8185V38.6992C15.7969 38.6992 14.959 38.9785 13.8418 38.9785C10.7162 38.9785 9.41773 36.1898 9.09375 34.7891C8.89695 33.9357 8.38305 33.127 7.83133 32.6329C7.17219 32.0451 6.86367 32.0434 6.85938 31.8423C6.85078 31.4203 7.42484 31.4375 7.69727 31.4375C9.09375 31.4375 10.1525 32.9234 10.6441 33.6916C11.8618 35.5883 13.1689 35.9062 13.8418 35.9062C14.6797 35.9062 15.4033 35.7808 15.9017 35.5402C16.132 33.9177 16.8539 32.4722 18.0312 31.4375C12.7916 30.3899 9.09375 27.3847 9.09375 22.5C9.09375 19.9838 10.1035 17.6712 11.7862 15.8038C11.6143 15.3165 11.3281 14.3308 11.3281 12.7246C11.3281 11.6633 11.402 10.3605 11.8867 9.09375C11.8867 9.09375 15.0733 9.11609 18.0785 11.9623C19.4655 11.5584 20.9497 11.3281 22.5 11.3281C24.0503 11.3281 25.5345 11.5584 26.9215 11.9623C29.9267 9.11609 33.1133 9.09375 33.1133 9.09375C33.6005 10.3605 33.6719 11.6633 33.6719 12.7246C33.6719 14.4563 33.4416 15.466 33.3006 15.9017C34.9317 17.752 35.9062 20.0284 35.9062 22.5C35.9062 27.3847 32.2084 30.3899 26.9688 31.4375C28.3678 32.6664 29.2031 34.4565 29.2031 36.4648V43.8185C28.7081 43.9741 28.2045 44.109 27.6949 44.2302C37.5287 41.8875 44.8438 33.0505 44.8438 22.5C44.8438 10.1602 34.8398 0.15625 22.5 0.15625ZM24.058 44.7836C23.5433 44.8197 23.0242 44.8438 22.5 44.8438C23.0242 44.8438 23.5424 44.8188 24.058 44.7836ZM22.5 44.8438C21.9758 44.8438 21.4567 44.8197 20.942 44.7836C21.4576 44.8188 21.9758 44.8438 22.5 44.8438ZM20.5991 44.7578C19.5532 44.6693 18.5271 44.5095 17.5277 44.2817C18.528 44.5086 19.5532 44.6693 20.5991 44.7578Z" fill="white"/>
</svg>
